{
    "asset" : {
        "generator" : "Khronos glTF Blender I/O v1.6.16",
        "version" : "2.0"
    },
    "scene" : 0,
    "scenes" : [
        {
            "name" : "Scene",
            "nodes" : [
                11
            ]
        }
    ],
    "nodes" : [
        {
            "name" : "Bone.002",
            "rotation" : [
                5.5712916946504265e-08,
                6.206073521752842e-08,
                1.1496014140632838e-09,
                1
            ],
            "scale" : [
                0.9999999403953552,
                1,
                1
            ],
            "translation" : [
                -1.7462298274040222e-10,
                2.3184049129486084,
                -2.0372681319713593e-10
            ]
        },
        {
            "name" : "Bone.009",
            "rotation" : [
                -0.00510237505659461,
                -6.883973835414281e-09,
                0.7039162516593933,
                0.7102646827697754
            ],
            "scale" : [
                1,
                1.0000001192092896,
                0.9999999403953552
            ],
            "translation" : [
                -7.166040649764227e-09,
                0.8865744471549988,
                -5.7413153342622536e-08
            ]
        },
        {
            "children" : [
                1
            ],
            "name" : "Bone.004",
            "rotation" : [
                -0.001918584923259914,
                3.6068954614165705e-06,
                -2.9992730560479686e-05,
                0.999998152256012
            ],
            "scale" : [
                1.0000001192092896,
                0.9999999403953552,
                0.9999999403953552
            ],
            "translation" : [
                2.7939712765601143e-09,
                0.8865741491317749,
                -9.255022348497732e-08
            ]
        },
        {
            "children" : [
                2
            ],
            "name" : "Bone.003",
            "rotation" : [
                -0.7100691199302673,
                -0.0013266528258100152,
                0.7041243314743042,
                0.003007726278156042
            ],
            "scale" : [
                1,
                0.9999998807907104,
                0.9999998807907104
            ],
            "translation" : [
                1.1947848796844482,
                1.9710639715194702,
                7.562338737443497e-07
            ]
        },
        {
            "name" : "Bone.012",
            "rotation" : [
                -0.007853301241993904,
                -0.0012325166026130319,
                0.7128084897994995,
                0.7013136744499207
            ],
            "scale" : [
                1.0000001192092896,
                1,
                0.9999999403953552
            ],
            "translation" : [
                -7.615476249611675e-09,
                0.8865740299224854,
                -2.4369128936996276e-08
            ]
        },
        {
            "children" : [
                4
            ],
            "name" : "Bone.011",
            "rotation" : [
                -0.016972364857792854,
                -0.003982407972216606,
                0.000866683607455343,
                0.9998476505279541
            ],
            "scale" : [
                1.0000001192092896,
                1.000000238418579,
                1.0000001192092896
            ],
            "translation" : [
                3.7252889661942845e-09,
                0.8865737318992615,
                -1.147272925550169e-07
            ]
        },
        {
            "children" : [
                5
            ],
            "name" : "Bone.010",
            "rotation" : [
                -0.7070962190628052,
                -0.003752121003344655,
                0.7070975303649902,
                0.003752177581191063
            ],
            "scale" : [
                1,
                0.9999999403953552,
                0.9999999403953552
            ],
            "translation" : [
                -1.1052149534225464,
                1.9710628986358643,
                1.8160787362830888e-07
            ]
        },
        {
            "name" : "Bone.006",
            "rotation" : [
                0.7064313292503357,
                0.03733721747994423,
                -0.7058373093605042,
                0.0368025116622448
            ],
            "scale" : [
                1,
                0.9999998211860657,
                1
            ],
            "translation" : [
                0.4382604658603668,
                -0.21274125576019287,
                2.0838342607021332e-07
            ]
        },
        {
            "name" : "Bone.008",
            "rotation" : [
                -0.7062932252883911,
                0.02908054180443287,
                0.7067408561706543,
                0.02866511233150959
            ],
            "scale" : [
                0.9999999403953552,
                0.9999998807907104,
                1
            ],
            "translation" : [
                -0.36173948645591736,
                -0.21274061501026154,
                7.427297532558441e-08
            ]
        },
        {
            "children" : [
                0,
                3,
                6,
                7,
                8
            ],
            "name" : "Bone.001",
            "rotation" : [
                -0.0020750313997268677,
                0.7045444846153259,
                0.0035956737119704485,
                0.7096477150917053
            ],
            "scale" : [
                1,
                1.0000001192092896,
                1
            ],
            "translation" : [
                -0.04018149524927139,
                2.4397997856140137,
                0.014325162395834923
            ]
        },
        {
            "mesh" : 0,
            "name" : "Cube.002",
            "skin" : 0
        },
        {
            "children" : [
                10,
                9
            ],
            "name" : "Armature",
            "rotation" : [
                4.691816866397858e-05,
                0,
                0,
                1
            ]
        }
    ],
    "animations" : [
        {
            "channels" : [
                {
                    "sampler" : 0,
                    "target" : {
                        "node" : 9,
                        "path" : "translation"
                    }
                },
                {
                    "sampler" : 1,
                    "target" : {
                        "node" : 9,
                        "path" : "rotation"
                    }
                },
                {
                    "sampler" : 2,
                    "target" : {
                        "node" : 9,
                        "path" : "scale"
                    }
                },
                {
                    "sampler" : 3,
                    "target" : {
                        "node" : 0,
                        "path" : "translation"
                    }
                },
                {
                    "sampler" : 4,
                    "target" : {
                        "node" : 0,
                        "path" : "rotation"
                    }
                },
                {
                    "sampler" : 5,
                    "target" : {
                        "node" : 0,
                        "path" : "scale"
                    }
                },
                {
                    "sampler" : 6,
                    "target" : {
                        "node" : 3,
                        "path" : "translation"
                    }
                },
                {
                    "sampler" : 7,
                    "target" : {
                        "node" : 3,
                        "path" : "rotation"
                    }
                },
                {
                    "sampler" : 8,
                    "target" : {
                        "node" : 3,
                        "path" : "scale"
                    }
                },
                {
                    "sampler" : 9,
                    "target" : {
                        "node" : 2,
                        "path" : "translation"
                    }
                },
                {
                    "sampler" : 10,
                    "target" : {
                        "node" : 2,
                        "path" : "rotation"
                    }
                },
                {
                    "sampler" : 11,
                    "target" : {
                        "node" : 2,
                        "path" : "scale"
                    }
                },
                {
                    "sampler" : 12,
                    "target" : {
                        "node" : 1,
                        "path" : "translation"
                    }
                },
                {
                    "sampler" : 13,
                    "target" : {
                        "node" : 1,
                        "path" : "rotation"
                    }
                },
                {
                    "sampler" : 14,
                    "target" : {
                        "node" : 1,
                        "path" : "scale"
                    }
                },
                {
                    "sampler" : 15,
                    "target" : {
                        "node" : 6,
                        "path" : "translation"
                    }
                },
                {
                    "sampler" : 16,
                    "target" : {
                        "node" : 6,
                        "path" : "rotation"
                    }
                },
                {
                    "sampler" : 17,
                    "target" : {
                        "node" : 6,
                        "path" : "scale"
                    }
                },
                {
                    "sampler" : 18,
                    "target" : {
                        "node" : 5,
                        "path" : "translation"
                    }
                },
                {
                    "sampler" : 19,
                    "target" : {
                        "node" : 5,
                        "path" : "rotation"
                    }
                },
                {
                    "sampler" : 20,
                    "target" : {
                        "node" : 5,
                        "path" : "scale"
                    }
                },
                {
                    "sampler" : 21,
                    "target" : {
                        "node" : 4,
                        "path" : "translation"
                    }
                },
                {
                    "sampler" : 22,
                    "target" : {
                        "node" : 4,
                        "path" : "rotation"
                    }
                },
                {
                    "sampler" : 23,
                    "target" : {
                        "node" : 4,
                        "path" : "scale"
                    }
                },
                {
                    "sampler" : 24,
                    "target" : {
                        "node" : 7,
                        "path" : "translation"
                    }
                },
                {
                    "sampler" : 25,
                    "target" : {
                        "node" : 7,
                        "path" : "rotation"
                    }
                },
                {
                    "sampler" : 26,
                    "target" : {
                        "node" : 7,
                        "path" : "scale"
                    }
                },
                {
                    "sampler" : 27,
                    "target" : {
                        "node" : 8,
                        "path" : "translation"
                    }
                },
                {
                    "sampler" : 28,
                    "target" : {
                        "node" : 8,
                        "path" : "rotation"
                    }
                },
                {
                    "sampler" : 29,
                    "target" : {
                        "node" : 8,
                        "path" : "scale"
                    }
                },
                {
                    "sampler" : 30,
                    "target" : {
                        "node" : 11,
                        "path" : "translation"
                    }
                },
                {
                    "sampler" : 31,
                    "target" : {
                        "node" : 11,
                        "path" : "rotation"
                    }
                },
                {
                    "sampler" : 32,
                    "target" : {
                        "node" : 11,
                        "path" : "scale"
                    }
                }
            ],
            "name" : "ArmatureAction",
            "samplers" : [
                {
                    "input" : 7,
                    "interpolation" : "LINEAR",
                    "output" : 8
                },
                {
                    "input" : 7,
                    "interpolation" : "LINEAR",
                    "output" : 9
                },
                {
                    "input" : 7,
                    "interpolation" : "LINEAR",
                    "output" : 10
                },
                {
                    "input" : 7,
                    "interpolation" : "LINEAR",
                    "output" : 11
                },
                {
                    "input" : 7,
                    "interpolation" : "LINEAR",
                    "output" : 12
                },
                {
                    "input" : 7,
                    "interpolation" : "LINEAR",
                    "output" : 13
                },
                {
                    "input" : 7,
                    "interpolation" : "LINEAR",
                    "output" : 14
                },
                {
                    "input" : 7,
                    "interpolation" : "LINEAR",
                    "output" : 15
                },
                {
                    "input" : 7,
                    "interpolation" : "LINEAR",
                    "output" : 16
                },
                {
                    "input" : 7,
                    "interpolation" : "LINEAR",
                    "output" : 17
                },
                {
                    "input" : 7,
                    "interpolation" : "LINEAR",
                    "output" : 18
                },
                {
                    "input" : 7,
                    "interpolation" : "LINEAR",
                    "output" : 19
                },
                {
                    "input" : 7,
                    "interpolation" : "LINEAR",
                    "output" : 20
                },
                {
                    "input" : 7,
                    "interpolation" : "LINEAR",
                    "output" : 21
                },
                {
                    "input" : 7,
                    "interpolation" : "LINEAR",
                    "output" : 22
                },
                {
                    "input" : 7,
                    "interpolation" : "LINEAR",
                    "output" : 23
                },
                {
                    "input" : 7,
                    "interpolation" : "LINEAR",
                    "output" : 24
                },
                {
                    "input" : 7,
                    "interpolation" : "LINEAR",
                    "output" : 25
                },
                {
                    "input" : 7,
                    "interpolation" : "LINEAR",
                    "output" : 26
                },
                {
                    "input" : 7,
                    "interpolation" : "LINEAR",
                    "output" : 27
                },
                {
                    "input" : 7,
                    "interpolation" : "LINEAR",
                    "output" : 28
                },
                {
                    "input" : 7,
                    "interpolation" : "LINEAR",
                    "output" : 29
                },
                {
                    "input" : 7,
                    "interpolation" : "LINEAR",
                    "output" : 30
                },
                {
                    "input" : 7,
                    "interpolation" : "LINEAR",
                    "output" : 31
                },
                {
                    "input" : 7,
                    "interpolation" : "LINEAR",
                    "output" : 32
                },
                {
                    "input" : 7,
                    "interpolation" : "LINEAR",
                    "output" : 33
                },
                {
                    "input" : 7,
                    "interpolation" : "LINEAR",
                    "output" : 34
                },
                {
                    "input" : 7,
                    "interpolation" : "LINEAR",
                    "output" : 35
                },
                {
                    "input" : 7,
                    "interpolation" : "LINEAR",
                    "output" : 36
                },
                {
                    "input" : 7,
                    "interpolation" : "LINEAR",
                    "output" : 37
                },
                {
                    "input" : 38,
                    "interpolation" : "LINEAR",
                    "output" : 39
                },
                {
                    "input" : 38,
                    "interpolation" : "LINEAR",
                    "output" : 40
                },
                {
                    "input" : 38,
                    "interpolation" : "LINEAR",
                    "output" : 41
                }
            ]
        },
        {
            "channels" : [
                {
                    "sampler" : 0,
                    "target" : {
                        "node" : 10,
                        "path" : "translation"
                    }
                },
                {
                    "sampler" : 1,
                    "target" : {
                        "node" : 10,
                        "path" : "rotation"
                    }
                },
                {
                    "sampler" : 2,
                    "target" : {
                        "node" : 10,
                        "path" : "scale"
                    }
                }
            ],
            "name" : "Cube.002Action",
            "samplers" : [
                {
                    "input" : 42,
                    "interpolation" : "LINEAR",
                    "output" : 43
                },
                {
                    "input" : 42,
                    "interpolation" : "LINEAR",
                    "output" : 44
                },
                {
                    "input" : 42,
                    "interpolation" : "LINEAR",
                    "output" : 45
                }
            ]
        }
    ],
    "materials" : [
        {
            "doubleSided" : true,
            "name" : "Material.001",
            "pbrMetallicRoughness" : {}
        }
    ],
    "meshes" : [
        {
            "name" : "Cube.003",
            "primitives" : [
                {
                    "attributes" : {
                        "POSITION" : 0,
                        "NORMAL" : 1,
                        "TEXCOORD_0" : 2,
                        "JOINTS_0" : 3,
                        "WEIGHTS_0" : 4
                    },
                    "indices" : 5,
                    "material" : 0
                }
            ]
        }
    ],
    "skins" : [
        {
            "inverseBindMatrices" : 6,
            "joints" : [
                9,
                0,
                3,
                2,
                1,
                6,
                5,
                4,
                7,
                8
            ],
            "name" : "Armature"
        }
    ],
    "accessors" : [
        {
            "bufferView" : 0,
            "componentType" : 5126,
            "count" : 224,
            "max" : [
                0.5980851054191589,
                6.167916297912598,
                1.548790693283081
            ],
            "min" : [
                -0.7830003499984741,
                0.013656733557581902,
                -1.5167460441589355
            ],
            "type" : "VEC3"
        },
        {
            "bufferView" : 1,
            "componentType" : 5126,
            "count" : 224,
            "type" : "VEC3"
        },
        {
            "bufferView" : 2,
            "componentType" : 5126,
            "count" : 224,
            "type" : "VEC2"
        },
        {
            "bufferView" : 3,
            "componentType" : 5121,
            "count" : 224,
            "type" : "VEC4"
        },
        {
            "bufferView" : 4,
            "componentType" : 5126,
            "count" : 224,
            "type" : "VEC4"
        },
        {
            "bufferView" : 5,
            "componentType" : 5123,
            "count" : 336,
            "type" : "SCALAR"
        },
        {
            "bufferView" : 6,
            "componentType" : 5126,
            "count" : 10,
            "type" : "MAT4"
        },
        {
            "bufferView" : 7,
            "componentType" : 5126,
            "count" : 591,
            "max" : [
                24.583333333333332
            ],
            "min" : [
                0
            ],
            "type" : "SCALAR"
        },
        {
            "bufferView" : 8,
            "componentType" : 5126,
            "count" : 591,
            "type" : "VEC3"
        },
        {
            "bufferView" : 9,
            "componentType" : 5126,
            "count" : 591,
            "type" : "VEC4"
        },
        {
            "bufferView" : 10,
            "componentType" : 5126,
            "count" : 591,
            "type" : "VEC3"
        },
        {
            "bufferView" : 11,
            "componentType" : 5126,
            "count" : 591,
            "type" : "VEC3"
        },
        {
            "bufferView" : 12,
            "componentType" : 5126,
            "count" : 591,
            "type" : "VEC4"
        },
        {
            "bufferView" : 13,
            "componentType" : 5126,
            "count" : 591,
            "type" : "VEC3"
        },
        {
            "bufferView" : 14,
            "componentType" : 5126,
            "count" : 591,
            "type" : "VEC3"
        },
        {
            "bufferView" : 15,
            "componentType" : 5126,
            "count" : 591,
            "type" : "VEC4"
        },
        {
            "bufferView" : 16,
            "componentType" : 5126,
            "count" : 591,
            "type" : "VEC3"
        },
        {
            "bufferView" : 17,
            "componentType" : 5126,
            "count" : 591,
            "type" : "VEC3"
        },
        {
            "bufferView" : 18,
            "componentType" : 5126,
            "count" : 591,
            "type" : "VEC4"
        },
        {
            "bufferView" : 19,
            "componentType" : 5126,
            "count" : 591,
            "type" : "VEC3"
        },
        {
            "bufferView" : 20,
            "componentType" : 5126,
            "count" : 591,
            "type" : "VEC3"
        },
        {
            "bufferView" : 21,
            "componentType" : 5126,
            "count" : 591,
            "type" : "VEC4"
        },
        {
            "bufferView" : 22,
            "componentType" : 5126,
            "count" : 591,
            "type" : "VEC3"
        },
        {
            "bufferView" : 23,
            "componentType" : 5126,
            "count" : 591,
            "type" : "VEC3"
        },
        {
            "bufferView" : 24,
            "componentType" : 5126,
            "count" : 591,
            "type" : "VEC4"
        },
        {
            "bufferView" : 25,
            "componentType" : 5126,
            "count" : 591,
            "type" : "VEC3"
        },
        {
            "bufferView" : 26,
            "componentType" : 5126,
            "count" : 591,
            "type" : "VEC3"
        },
        {
            "bufferView" : 27,
            "componentType" : 5126,
            "count" : 591,
            "type" : "VEC4"
        },
        {
            "bufferView" : 28,
            "componentType" : 5126,
            "count" : 591,
            "type" : "VEC3"
        },
        {
            "bufferView" : 29,
            "componentType" : 5126,
            "count" : 591,
            "type" : "VEC3"
        },
        {
            "bufferView" : 30,
            "componentType" : 5126,
            "count" : 591,
            "type" : "VEC4"
        },
        {
            "bufferView" : 31,
            "componentType" : 5126,
            "count" : 591,
            "type" : "VEC3"
        },
        {
            "bufferView" : 32,
            "componentType" : 5126,
            "count" : 591,
            "type" : "VEC3"
        },
        {
            "bufferView" : 33,
            "componentType" : 5126,
            "count" : 591,
            "type" : "VEC4"
        },
        {
            "bufferView" : 34,
            "componentType" : 5126,
            "count" : 591,
            "type" : "VEC3"
        },
        {
            "bufferView" : 35,
            "componentType" : 5126,
            "count" : 591,
            "type" : "VEC3"
        },
        {
            "bufferView" : 36,
            "componentType" : 5126,
            "count" : 591,
            "type" : "VEC4"
        },
        {
            "bufferView" : 37,
            "componentType" : 5126,
            "count" : 591,
            "type" : "VEC3"
        },
        {
            "bufferView" : 38,
            "componentType" : 5126,
            "count" : 468,
            "max" : [
                19.458333333333332
            ],
            "min" : [
                0
            ],
            "type" : "SCALAR"
        },
        {
            "bufferView" : 39,
            "componentType" : 5126,
            "count" : 468,
            "type" : "VEC3"
        },
        {
            "bufferView" : 40,
            "componentType" : 5126,
            "count" : 468,
            "type" : "VEC4"
        },
        {
            "bufferView" : 41,
            "componentType" : 5126,
            "count" : 468,
            "type" : "VEC3"
        },
        {
            "bufferView" : 42,
            "componentType" : 5126,
            "count" : 54,
            "max" : [
                11.166666666666666
            ],
            "min" : [
                8.958333333333334
            ],
            "type" : "SCALAR"
        },
        {
            "bufferView" : 43,
            "componentType" : 5126,
            "count" : 54,
            "type" : "VEC3"
        },
        {
            "bufferView" : 44,
            "componentType" : 5126,
            "count" : 54,
            "type" : "VEC4"
        },
        {
            "bufferView" : 45,
            "componentType" : 5126,
            "count" : 54,
            "type" : "VEC3"
        }
    ],
    "bufferViews" : [
        {
            "buffer" : 0,
            "byteLength" : 2688,
            "byteOffset" : 0
        },
        {
            "buffer" : 0,
            "byteLength" : 2688,
            "byteOffset" : 2688
        },
        {
            "buffer" : 0,
            "byteLength" : 1792,
            "byteOffset" : 5376
        },
        {
            "buffer" : 0,
            "byteLength" : 896,
            "byteOffset" : 7168
        },
        {
            "buffer" : 0,
            "byteLength" : 3584,
            "byteOffset" : 8064
        },
        {
            "buffer" : 0,
            "byteLength" : 672,
            "byteOffset" : 11648
        },
        {
            "buffer" : 0,
            "byteLength" : 640,
            "byteOffset" : 12320
        },
        {
            "buffer" : 0,
            "byteLength" : 2364,
            "byteOffset" : 12960
        },
        {
            "buffer" : 0,
            "byteLength" : 7092,
            "byteOffset" : 15324
        },
        {
            "buffer" : 0,
            "byteLength" : 9456,
            "byteOffset" : 22416
        },
        {
            "buffer" : 0,
            "byteLength" : 7092,
            "byteOffset" : 31872
        },
        {
            "buffer" : 0,
            "byteLength" : 7092,
            "byteOffset" : 38964
        },
        {
            "buffer" : 0,
            "byteLength" : 9456,
            "byteOffset" : 46056
        },
        {
            "buffer" : 0,
            "byteLength" : 7092,
            "byteOffset" : 55512
        },
        {
            "buffer" : 0,
            "byteLength" : 7092,
            "byteOffset" : 62604
        },
        {
            "buffer" : 0,
            "byteLength" : 9456,
            "byteOffset" : 69696
        },
        {
            "buffer" : 0,
            "byteLength" : 7092,
            "byteOffset" : 79152
        },
        {
            "buffer" : 0,
            "byteLength" : 7092,
            "byteOffset" : 86244
        },
        {
            "buffer" : 0,
            "byteLength" : 9456,
            "byteOffset" : 93336
        },
        {
            "buffer" : 0,
            "byteLength" : 7092,
            "byteOffset" : 102792
        },
        {
            "buffer" : 0,
            "byteLength" : 7092,
            "byteOffset" : 109884
        },
        {
            "buffer" : 0,
            "byteLength" : 9456,
            "byteOffset" : 116976
        },
        {
            "buffer" : 0,
            "byteLength" : 7092,
            "byteOffset" : 126432
        },
        {
            "buffer" : 0,
            "byteLength" : 7092,
            "byteOffset" : 133524
        },
        {
            "buffer" : 0,
            "byteLength" : 9456,
            "byteOffset" : 140616
        },
        {
            "buffer" : 0,
            "byteLength" : 7092,
            "byteOffset" : 150072
        },
        {
            "buffer" : 0,
            "byteLength" : 7092,
            "byteOffset" : 157164
        },
        {
            "buffer" : 0,
            "byteLength" : 9456,
            "byteOffset" : 164256
        },
        {
            "buffer" : 0,
            "byteLength" : 7092,
            "byteOffset" : 173712
        },
        {
            "buffer" : 0,
            "byteLength" : 7092,
            "byteOffset" : 180804
        },
        {
            "buffer" : 0,
            "byteLength" : 9456,
            "byteOffset" : 187896
        },
        {
            "buffer" : 0,
            "byteLength" : 7092,
            "byteOffset" : 197352
        },
        {
            "buffer" : 0,
            "byteLength" : 7092,
            "byteOffset" : 204444
        },
        {
            "buffer" : 0,
            "byteLength" : 9456,
            "byteOffset" : 211536
        },
        {
            "buffer" : 0,
            "byteLength" : 7092,
            "byteOffset" : 220992
        },
        {
            "buffer" : 0,
            "byteLength" : 7092,
            "byteOffset" : 228084
        },
        {
            "buffer" : 0,
            "byteLength" : 9456,
            "byteOffset" : 235176
        },
        {
            "buffer" : 0,
            "byteLength" : 7092,
            "byteOffset" : 244632
        },
        {
            "buffer" : 0,
            "byteLength" : 1872,
            "byteOffset" : 251724
        },
        {
            "buffer" : 0,
            "byteLength" : 5616,
            "byteOffset" : 253596
        },
        {
            "buffer" : 0,
            "byteLength" : 7488,
            "byteOffset" : 259212
        },
        {
            "buffer" : 0,
            "byteLength" : 5616,
            "byteOffset" : 266700
        },
        {
            "buffer" : 0,
            "byteLength" : 216,
            "byteOffset" : 272316
        },
        {
            "buffer" : 0,
            "byteLength" : 648,
            "byteOffset" : 272532
        },
        {
            "buffer" : 0,
            "byteLength" : 864,
            "byteOffset" : 273180
        },
        {
            "buffer" : 0,
            "byteLength" : 648,
            "byteOffset" : 274044
        }
    ],
    "buffers" : [
        {
            "byteLength" : 274692,
            "uri" : "data:application/octet-stream;base64,"
        }
    ]
}
